<?xml version="1.0" encoding="utf-8"?>
<!-- Generator: Adobe Illustrator 21.0.0, SVG Export Plug-In . SVG Version: 6.00 Build 0)  -->
<svg version="1.1" id="Слой_1" xmlns="http://www.w3.org/2000/svg" xmlns:xlink="http://www.w3.org/1999/xlink" x="0px" y="0px"
	 viewBox="0 0 512 512" style="enable-background:new 0 0 512 512;" xml:space="preserve">
<style type="text/css">
	.st0{fill:#FFCC33;}
</style>
<g id="_x30_p3a2V.tif">
	<g>
		<path class="st0" d="M404.8,487c-133.3,0-266.3,0-400,0c6.3-11,12.3-21.2,18.1-31.5c4.9-8.8,9.5-17.7,14.5-26.5
			c6-10.7,12.2-21.2,18.2-31.9c3.5-6.2,6.7-12.5,10.2-18.6c0.6-1,2-2.1,3-2.2c19.6-0.1,39.3-0.1,60.3-0.1
			c-10.6,19.8-20.7,38.9-31,58.3c71.6,0,143.1,0,215.3,0c-10.7-19.4-21.2-38.4-32-57.8c1.7-0.1,2.8-0.2,4-0.2
			c17.1-0.1,34.1,0,51.2-0.4c3.8-0.1,5.6,1.4,7.4,4.5c8.3,14.7,16.9,29.2,25.3,43.8c6.6,11.6,13.1,23.2,19.8,34.8
			c4.9,8.5,10.1,16.9,15.1,25.3C404.3,485.3,404.5,486,404.8,487z M392.6,479.9c-18.8-32.5-37.2-64.3-55.6-96c-14.4,0-28.8,0-43.5,0
			c10.7,19.4,21.3,38.4,32,57.9c-80.2,0-159.7,0-239.7,0c10.4-19.4,20.6-38.5,31.1-58.1c-15.2,0-29.6,0-43.9,0.1
			c-1.1,0-2.5,1.2-3.1,2.2c-2.2,3.6-4.1,7.5-6.2,11.2c-6.5,11.4-13,22.7-19.4,34.1c-6,10.8-12,21.6-17.9,32.4
			c-2.9,5.2-5.8,10.5-9,16.3C142.7,479.9,267.2,479.9,392.6,479.9z"/>
		<path class="st0" d="M507.2,428.8c-2.2,0.1-3.7,0.3-5.2,0.3c-40.1,0-80.2,0-120.3,0c-2.4,0-3.7-0.8-5-3.1
			c-8.3-15.2-16.9-30.3-25.4-45.5c-0.7-1.2-1.5-2.3-2.6-4c22,0,43.6,0,65.9,0c-36.3-63-72.3-125.3-108.7-188.4
			c-11.5,19.1-22.6,37.6-34.2,57c-2.2-3.5-4-6.2-5.6-9c-7.6-13.4-15.1-26.7-22.5-40.2c-0.6-1.1-0.5-3.2,0.1-4.3
			c9.6-17.2,19.2-34.3,28.9-51.3c8-14,16.2-27.9,24.3-41.8c2.6-4.6,5.2-9.2,7.6-13.9c0.9-1.8,1.5-1.7,2.4-0.2c5.3,9,10.7,18,16,27
			c5.1,8.7,10,17.4,15.1,26.2c6.7,11.5,13.4,23.1,20.1,34.6c4.9,8.4,9.7,16.8,14.5,25.2c6.1,10.6,12.1,21.2,18.2,31.7
			c7.9,13.6,16,27.1,24,40.7c6.1,10.4,11.9,21,17.9,31.5c7.9,13.6,16,27.1,23.9,40.7c6.7,11.5,13.3,23.1,19.9,34.6
			c7.3,12.5,14.6,25,21.9,37.5C501.5,418.8,504.1,423.4,507.2,428.8z M306.2,173.9c40.5,70.2,80.5,139.5,121,209.7
			c-22.6,0-43.7,0-65.2,0c0.5,1.5,0.6,2.8,1.2,3.9c5.8,10.2,11.9,20.2,17.3,30.5c1.7,3.2,3.6,3.7,6.6,3.7c34.1-0.1,68.3,0,102.4,0
			c1.5,0,2.9,0,5.1,0c-63-108.6-125.6-216.4-188.2-324.3c-0.5,0.1-0.9,0-1,0.2c-3.3,5.9-6.6,11.9-10,17.8c-7.3,13-14.6,26.1-22,39.1
			c-7.2,12.6-14.5,25-21.7,37.6c-0.6,1-0.3,3,0.3,4.2c2.7,5.1,5.6,10.2,8.4,15.2c3.7,6.4,7.4,12.8,11.3,19.4
			C283.4,212,294.5,193.4,306.2,173.9z"/>
		<path class="st0" d="M238.3,186.6c-11.4-18.9-22.3-37.1-33.7-56c-36.2,62.7-71.9,124.6-108,187.1c22.3,0,43.9,0,66.4,0
			c-1.9,3.5-3.3,6.4-4.9,9.1c-7.5,12.8-15.4,25.4-22.4,38.5c-2.1,3.9-4.3,4.5-8,4.5c-39.2-0.1-78.4,0-117.5,0c-1.5,0-3,0-5,0
			c4.4-7.7,8.3-14.8,12.4-21.8c6.6-11.5,13.2-22.9,19.9-34.3c6.8-11.6,13.7-23.2,20.4-34.8c4.9-8.4,9.6-16.9,14.4-25.3
			C79,241.6,86,229.8,92.8,218c4.8-8.3,9.4-16.7,14.2-25c6.9-11.9,13.8-23.6,20.7-35.5c7.9-13.8,15.7-27.6,23.6-41.4
			c6.8-11.8,13.8-23.4,20.5-35.2c6.6-11.4,12.9-23,19.4-34.5c3.8-6.7,7.7-13.3,11.6-20c1.1-2,2.4-1.9,3.4-0.1
			c5.8,10,11.5,20.1,17.3,30.1c4.7,8.2,9.6,16.3,14.3,24.4c6.8,11.7,13.6,23.5,20.5,35.2c2.7,4.6,5.4,9.1,8.3,13.5
			c1.7,2.5,1.8,4.7,0.2,7.4c-6.9,11.9-13.7,23.8-20.5,35.7C243.8,177.1,241.2,181.5,238.3,186.6z M150.6,324.5
			c-22.8,0-44.4,0-66.5,0c40.2-69.6,80.1-138.6,120.3-208.1c11.4,18.8,22.4,37.1,33.7,55.8c0.5-0.7,0.8-1.2,1.2-1.8
			c5.6-9.9,10.9-20.1,17-29.8c3.2-5.1,4.1-8.8,0.1-14.2c-5-6.7-8.6-14.4-12.9-21.6c-6.6-11.2-13.3-22.4-19.8-33.6
			c-6.3-10.8-12.5-21.7-19-33C142.1,146.5,79.9,254.3,17.5,362.5c1.2,0.1,1.7,0.2,2.2,0.2c35.4,0,70.9,0,106.3-0.1
			c1.5,0,3.4-1.4,4.3-2.8c3.9-6.2,7.5-12.6,11.1-18.9C144.3,335.8,147.1,330.7,150.6,324.5z"/>
		<path class="st0" d="M302.5,311.5c-2.2,0-3.5,0-4.9,0c-16.9,0-33.9-0.1-50.8,0.1c-3.4,0-5.1-1.3-6.7-3.9
			c-8.3-14-16.7-27.9-25-41.9c-3.4-5.7-6.7-11.4-10.4-17.8c-3.2,5.2-6.2,9.9-9.1,14.7c-9.5,15.8-18.9,31.6-28.4,47.4
			c-0.5,0.8-1.8,1.4-2.7,1.4c-19,0.1-38,0.1-57.8,0.1c32.6-56.1,65-111.8,97.9-168.4C237.3,199.3,269.7,255,302.5,311.5z
			 M119.3,304.4c15,0,29.1,0,42.7,0c14.1-23.4,28-46.6,42.3-70.3c1.1,1.3,1.9,2.2,2.5,3.3c5.1,8.5,10.1,17,15.2,25.5
			c6.7,11.3,13.6,22.5,20,33.9c3,5.5,6.3,9.1,13.2,7.8c3.3-0.6,6.7-0.1,10.1-0.1c8,0,15.9,0,24.7,0c-28.6-49.3-56.9-98-85.5-147.2
			C176,206.6,147.8,255.2,119.3,304.4z"/>
		<path class="st0" d="M312.3,317.6c-6-11.1-11.7-21.5-17.4-32c-5.7-10.6-11.4-21.3-17.2-31.8c-1.3-2.3-1.1-4.2,0.1-6.3
			c9-15.1,18.1-30.2,27.1-45.3c1.3-2.2,1.3-2.2,2.6,0.1c7.6,13.6,15.4,27.2,23.2,40.7c6.5,11.2,13.3,22.2,19.7,33.4
			c5.9,10.1,11.4,20.5,17.2,30.7c4.9,8.7,9.9,17.3,14.9,25.9c6.5,11.3,13.1,22.7,19.6,34c0.4,0.7,0.5,1.6,0.9,2.6
			c-64.6,0-128.8,0-193.4,0c2.6-4.8,4.9-9.3,7.4-13.7c6.7-11.8,13.7-23.5,20.3-35.4c1.3-2.4,2.9-2.8,5.2-2.8c21.7,0,43.5,0,65.2,0
			C308.9,317.6,310.3,317.6,312.3,317.6z M284.4,250.6c13.3,24.7,26.5,49.1,40.1,74.3c-2.5,0-3.7,0-5,0c-24.4,0-48.9,0-73.3,0
			c-2.3,0-3.7,0.5-4.8,2.7c-2.5,4.8-5.4,9.4-8.1,14.1c-3.9,6.8-7.7,13.7-11.6,20.8c56.6,0,112.8,0,169.2,0
			c-28.4-49.5-56.5-98.6-85-148.3C298.4,227,291.4,238.8,284.4,250.6z"/>
		<path class="st0" d="M198.6,376.4c24.5,0,48,0.1,71.5-0.1c3,0,4.6,1.1,5.9,3.3c8.8,15.6,17.5,31.2,26.3,46.8
			c0.3,0.5,0.2,1.2,0.4,2c-64.5,0-128.8,0-194.1,0c32-56.3,63.6-112.1,95.8-168.7c1.5,2.1,2.9,3.9,4,5.9
			c5.9,10.2,11.7,20.5,17.6,30.8c2.5,4.3,5.3,8.5,7.7,13c0.6,1.1,0.7,3.1,0.2,4.1c-9.7,17.6-19.5,35.2-29.3,52.8
			C202.6,369.4,200.8,372.5,198.6,376.4z M204.6,274.1c-28,49.3-55.7,98.1-83.6,147.2c56.7,0,113.2,0,169.8,0
			c-0.8-1.4-1.5-2.5-2.2-3.6c-5.9-10.4-11.8-20.7-17.5-31.2c-1.3-2.3-2.7-2.8-5.1-2.8c-24.9,0.1-49.9,0.1-74.8,0
			c-1.4,0-2.8-0.3-4.7-0.5c6.7-12.1,12.9-23.5,19.3-34.9c5.7-10.2,11.8-20.3,17.4-30.5c1.7-3.2,4.2-6.4,0.9-10.6
			c-3-3.8-5.1-8.4-7.6-12.7C212.6,287.7,208.7,281,204.6,274.1z"/>
	</g>
</g>
</svg>
